<svg width="200" height="200" viewBox="0 0 200 200" fill="none" xmlns="http://www.w3.org/2000/svg">
<path d="M179.422 146.195C183.867 137.386 186.106 127.629 185.947 117.764C185.788 107.898 183.236 98.2188 178.51 89.5574C173.784 80.8961 167.025 73.5118 158.815 68.0394C150.604 62.567 141.188 59.17 131.375 58.1406C128.26 50.5565 123.646 43.6792 117.81 37.9202C111.975 32.1613 105.037 27.6393 97.4119 24.6249C89.7872 21.6105 81.6327 20.1658 73.4365 20.3772C65.2403 20.5886 57.171 22.4518 49.7119 25.8553C42.2528 29.2588 35.5572 34.1325 30.026 40.1846C24.4948 46.2368 20.2419 53.3429 17.5217 61.0774C14.8016 68.8119 13.6703 77.0159 14.1955 85.1979C14.7207 93.38 16.8916 101.372 20.5783 108.695L14.4298 130.234C13.9718 131.841 13.9515 133.541 14.3711 135.159C14.7907 136.776 15.635 138.252 16.8165 139.434C17.9981 140.615 19.4739 141.459 21.0913 141.879C22.7087 142.299 24.4089 142.278 26.0158 141.82L47.5548 135.672C54.141 138.981 61.2714 141.072 68.6017 141.844C71.7903 149.62 76.552 156.654 82.5881 162.502C88.6242 168.351 95.8042 172.889 103.677 175.83C111.551 178.772 119.947 180.055 128.339 179.597C136.732 179.14 144.939 176.952 152.445 173.172L173.985 179.32C175.591 179.778 177.292 179.799 178.909 179.379C180.526 178.959 182.002 178.115 183.184 176.934C184.365 175.752 185.21 174.276 185.629 172.659C186.049 171.041 186.029 169.341 185.57 167.734L179.422 146.195ZM48.0705 125.961C47.6344 125.959 47.2003 126.019 46.7814 126.141L23.4377 132.812L30.1017 109.477C30.4421 108.291 30.3017 107.02 29.7111 105.937C23.7843 95.0464 21.9805 82.3845 24.6302 70.2717C27.28 58.1589 34.2058 47.4065 44.1386 39.9849C54.0713 32.5633 66.3459 28.9694 78.7129 29.8619C91.08 30.7544 102.711 36.0734 111.476 44.8443C120.24 53.6152 125.55 65.2505 126.433 77.6183C127.316 89.986 123.713 102.258 116.284 112.185C108.855 122.112 98.0972 129.03 85.9824 131.67C73.8676 134.311 61.207 132.497 50.3205 126.562C49.6318 126.179 48.8587 125.972 48.0705 125.961ZM169.891 146.969L176.563 170.312L153.227 163.648C152.042 163.308 150.77 163.448 149.688 164.039C143.626 167.344 136.962 169.397 130.091 170.078C123.22 170.758 116.283 170.052 109.69 168.001C103.097 165.95 96.9839 162.596 91.7121 158.137C86.4402 153.679 82.1174 148.207 79.0002 142.047C87.7653 141.476 96.3031 139.016 104.028 134.834C111.752 130.653 118.48 124.849 123.75 117.822C129.019 110.795 132.706 102.71 134.556 94.1238C136.407 85.5372 136.377 76.652 134.469 68.0781C142.47 69.568 150.005 72.9309 156.458 77.8917C162.91 82.8524 168.096 89.2701 171.592 96.6199C175.089 103.97 176.795 112.043 176.573 120.178C176.35 128.314 174.205 136.282 170.313 143.43C169.712 144.508 169.56 145.779 169.891 146.969Z" fill="#284243"/>
</svg>
